# xmcd CD database file
#
# Track frame offsets:
#	150
#	30489
#	41877
#	63259
#	72823
#	104239
#	114310
#	152834
#	182354
#
# Disc length: 2820 seconds
#
# Revision: 1
# Processed by: cddbd v1.5.2PL0 Copyright (c) Steve Scherf et al.
# Submitted via: CDex 1.51
#
DISCID=740b0209
DTITLE=Yes - 9012 Live The Solos
DYEAR=1984
DGENRE=Progressive Rock
TTITLE0=Hold On
TTITLE1=Si
TTITLE2=Solly's Beard
TTITLE3=Soon
TTITLE4=Changes
TTITLE5=Amazing Grace
TTITLE6=Whitefish
TTITLE7=City Of Love
TTITLE8=It Can Happen
EXTD=YEAR: 1984
EXTT0=
EXTT1=
EXTT2=
EXTT3=
EXTT4=
EXTT5=
EXTT6=
EXTT7=
EXTT8=
PLAYORDER=
